<svg xmlns="http://www.w3.org/2000/svg" width="66" height="80" fill="none" viewBox="0 0 66 80">
  <g filter="url(#a)">
    <mask id="b" fill="#fff">
      <path d="M10.672 54.01c.002-1.095.056-2.2.121-2.455.115-.449.096-.49-.587-1.221-.884-.947-1.273-1.549-1.724-2.664-.319-.788-.356-1.041-.359-2.425-.002-1.397.032-1.63.36-2.436.837-2.06 2.288-3.556 4.323-4.456.664-.294 1.267-.535 1.34-.535.072 0 .422-.254.778-.565.369-.323.887-.638 1.209-.735.617-.184.627-.233.23-1.096l-.193-.421-1.104-.063c-1.239-.07-1.74-.27-2.125-.85-.227-.34-.247-.65-.247-3.896 0-3.376.012-3.54.27-3.855.563-.685.857-.793 2.336-.853l1.376-.055.838-1.143c.718-.978 2.09-2.333 3.026-2.986 1.107-.772 2.78-1.512 4.483-1.984 1.029-.284 1.333-.313 3.353-.316 1.688-.003 2.394.044 2.94.192.396.107.954.257 1.242.333.654.174 2.054.811 3.032 1.38 1.451.845 2.665 1.964 3.723 3.433l.786 1.092 1.34.054c1.537.062 2.116.29 2.474.976.312.598.312 6.908 0 7.506-.329.63-.934.899-2.187.97l-1.077.06-.219.49c-.397.891-.4.906-.17.906.379 0 1.225.462 1.7.928.31.306.727.54 1.279.718a8.116 8.116 0 0 1 5.132 4.95c.492 1.37.49 3.167-.006 4.502-.454 1.221-.9 1.94-1.744 2.812l-.688.71.14 1.267c.078.697.14 1.819.14 2.494V56H10.67l.003-1.99Zm7.184.074v-.847l-1.797-3.252c-.988-1.789-1.827-3.253-1.864-3.253-.179-.002-1.188 1.606-1.603 2.556-.546 1.248-.747 2.4-.747 4.285v1.358h6.011v-.847Zm19.864.19c0-.524-.047-.67-.23-.72-1.015-.273-1.73-.964-1.73-1.673 0-.277.583-1.462 1.9-3.859 1.047-1.902 1.884-3.546 1.862-3.652-.061-.29-1.58-.946-2.947-1.272-1.21-.288-1.22-.289-8.203-.289-6.53 0-7.055.016-7.947.233-1.508.368-3.06.981-3.176 1.256-.033.079.795 1.704 1.841 3.612 2.012 3.669 2.104 3.925 1.695 4.708-.235.452-.606.706-1.246.856-.43.101-.442.122-.48.78l-.04.677h18.7v-.658Zm7.318-.688c0-1.553-.132-2.368-.604-3.73-.318-.916-1.276-2.626-1.679-2.993-.154-.141-.432.291-1.885 2.931-.936 1.703-1.764 3.131-1.839 3.173-.075.042-.135.496-.135 1.02v.944h6.142v-1.345Zm-25.352-1.27c.143-.13.261-.321.261-.424 0-.191-3.945-7.457-4.201-7.738-.18-.195-.92-.205-1.13-.014-.087.079-.157.274-.157.435 0 .367 4.016 7.71 4.3 7.86.332.177.645.137.927-.119Zm18.465.026c.416-.418 4.142-7.366 4.142-7.724 0-.452-.262-.646-.807-.599-.43.038-.45.07-2.49 3.781-1.131 2.06-2.058 3.873-2.059 4.031-.004.619.779.948 1.214.511ZM11.322 49.52c0-.1.12-.396.265-.655l.265-.472-.33-.443c-.182-.242-.33-.51-.33-.592 0-.083-.049-.15-.107-.15-.183 0-1.462.362-1.462.414 0 .151.38.8.817 1.398.48.656.882.884.882.5Zm34.821-.19c.357-.386.756-1.04.91-1.492.08-.233.015-.281-.595-.446a17.8 17.8 0 0 0-.716-.185c-.017 0-.113.147-.213.327-.1.18-.261.44-.358.58-.153.22-.137.341.122.92.164.368.345.669.402.669.057 0 .259-.168.448-.373ZM13.08 46.435c.52-.663.585-.806.458-1.02-.239-.407-.176-1.254.126-1.698.204-.3.272-.598.272-1.189 0-.433-.053-.788-.118-.788-.175 0-1.053.828-1.383 1.306-.431.623-.636 1.57-.551 2.543.077.874.3 1.617.485 1.617.059 0 .379-.347.711-.77Zm31.537.504c.814-1.484.412-3.398-.998-4.753-.673-.647-.803-.593-.803.333 0 .635.06.86.327 1.216.357.477.404.89.181 1.566-.138.42-.118.474.425 1.166.314.4.604.73.646.733.042.003.142-.114.222-.261Zm-34.373-.583.425-.112v-.87c0-.952-.027-.982-1.078-1.19l-.36-.072v1.17c0 1.224.05 1.387.386 1.262a8.63 8.63 0 0 1 .627-.188Zm37.344-.13c.043-.212.06-.76.038-1.218-.039-.81-.049-.831-.367-.796a5.68 5.68 0 0 0-.751.158l-.425.122v1.75l.62.173c.342.095.663.178.714.185.05.007.127-.162.17-.374Zm-36.39-3.135c.072-.172.247-.46.389-.642.142-.181.258-.4.258-.484 0-.188-.781-.939-.973-.936-.318.005-1.421 1.9-1.215 2.088.094.086.825.256 1.178.274.138.008.286-.115.363-.3Zm6.245-.094a14.812 14.812 0 0 1 1.565-.608c.373-.11.678-.214.678-.229 0-.015-.096-.2-.212-.413-.259-.471-.183-1.34.146-1.67.218-.22.205-.249-.33-.738a19.886 19.886 0 0 1-1.203-1.253c-.532-.611-.715-.743-1.033-.743-.714 0-1.56.54-1.825 1.166-.064.152-.117 1.208-.117 2.347 0 2.07 0 2.072.294 2.073.162 0 .47.107.686.237.216.13.408.236.428.237.02 0 .435-.182.923-.406Zm23.282.169c.282-.13.603-.238.714-.238.174 0 .201-.296.201-2.18 0-2.067-.016-2.202-.294-2.573-.352-.469-1.056-.833-1.599-.828-.314.003-.486.115-.851.558a20.84 20.84 0 0 1-1.162 1.248l-.704.694.23.387c.226.384.23 1.09.008 1.696-.08.22.005.282.736.528.454.153 1.12.427 1.48.608.36.182.67.332.691.334.02.002.269-.103.55-.234Zm6.306.045c.125-.034.228-.112.228-.175 0-.184-.73-1.448-1.024-1.772l-.268-.297-.543.49-.543.488.34.49c.187.268.34.532.34.586 0 .358.565.432 1.47.19Zm-10.857-1.668c.334-.274.307-.816-.052-1.044-.254-.162-1.207-.185-7.718-.185-4.871 0-7.516.042-7.681.123-.292.142-.357.923-.096 1.16.118.108 2.014.143 7.732.143 6.866 0 7.598-.019 7.815-.197Zm-22.83-.752c.543-.339.57-.384.619-1.04.028-.377.037-.704.019-.728-.138-.185-2.268.946-2.268 1.204 0 .13.845.919.983.919.045 0 .336-.16.648-.355Zm31.343-.098.486-.453-.296-.247c-.354-.294-1.692-.986-1.908-.986-.1 0-.153.246-.153.705 0 .695.008.71.555 1.06.306.194.617.358.693.364.075.005.355-.194.623-.443Zm-7.752-2.251c1.127-1.075 1.631-1.699 2.185-2.706.35-.637.898-2.112 1.072-2.885.182-.812.182-3.276 0-4.088-.963-4.286-4.546-7.638-9.178-8.587-1.188-.244-3.967-.242-5.145.002-1.045.217-1.756.42-1.93.553a.546.546 0 0 1-.282.094c-.087 0-.59.221-1.117.491-3.777 1.933-6.121 5.57-6.121 9.498 0 2.962 1.343 5.826 3.674 7.836l.758.654 7.617-.026 7.618-.026.85-.81Zm-21.3-4.894c0-.192-.06-.493-.135-.67-.074-.177-.135-1.064-.135-1.97 0-1.362.055-1.85.321-2.806.178-.636.362-1.25.411-1.365.08-.186-.01-.208-.863-.208-1.508 0-1.429-.205-1.429 3.694 0 3.803-.04 3.674 1.12 3.674.698 0 .71-.006.71-.349Zm27.155.206c.224-.203.224-6.879 0-7.082-.156-.142-1.95-.208-2.093-.077-.04.036.033.317.162.625.603 1.444.803 3.872.454 5.529-.108.512-.196.98-.196 1.04 0 .161 1.491.13 1.673-.035Z"/>
    </mask>
    <path fill="#F1F1F1" stroke="#9D9CA1" stroke-width="6" d="M10.672 54.01c.002-1.095.056-2.2.121-2.455.115-.449.096-.49-.587-1.221-.884-.947-1.273-1.549-1.724-2.664-.319-.788-.356-1.041-.359-2.425-.002-1.397.032-1.63.36-2.436.837-2.06 2.288-3.556 4.323-4.456.664-.294 1.267-.535 1.34-.535.072 0 .422-.254.778-.565.369-.323.887-.638 1.209-.735.617-.184.627-.233.23-1.096l-.193-.421-1.104-.063c-1.239-.07-1.74-.27-2.125-.85-.227-.34-.247-.65-.247-3.896 0-3.376.012-3.54.27-3.855.563-.685.857-.793 2.336-.853l1.376-.055.838-1.143c.718-.978 2.09-2.333 3.026-2.986 1.107-.772 2.78-1.512 4.483-1.984 1.029-.284 1.333-.313 3.353-.316 1.688-.003 2.394.044 2.94.192.396.107.954.257 1.242.333.654.174 2.054.811 3.032 1.38 1.451.845 2.665 1.964 3.723 3.433l.786 1.092 1.34.054c1.537.062 2.116.29 2.474.976.312.598.312 6.908 0 7.506-.329.63-.934.899-2.187.97l-1.077.06-.219.49c-.397.891-.4.906-.17.906.379 0 1.225.462 1.7.928.31.306.727.54 1.279.718a8.116 8.116 0 0 1 5.132 4.95c.492 1.37.49 3.167-.006 4.502-.454 1.221-.9 1.94-1.744 2.812l-.688.71.14 1.267c.078.697.14 1.819.14 2.494V56H10.67l.003-1.99Zm7.184.074v-.847l-1.797-3.252c-.988-1.789-1.827-3.253-1.864-3.253-.179-.002-1.188 1.606-1.603 2.556-.546 1.248-.747 2.4-.747 4.285v1.358h6.011v-.847Zm19.864.19c0-.524-.047-.67-.23-.72-1.015-.273-1.73-.964-1.73-1.673 0-.277.583-1.462 1.9-3.859 1.047-1.902 1.884-3.546 1.862-3.652-.061-.29-1.58-.946-2.947-1.272-1.21-.288-1.22-.289-8.203-.289-6.53 0-7.055.016-7.947.233-1.508.368-3.06.981-3.176 1.256-.033.079.795 1.704 1.841 3.612 2.012 3.669 2.104 3.925 1.695 4.708-.235.452-.606.706-1.246.856-.43.101-.442.122-.48.78l-.04.677h18.7v-.658Zm7.318-.688c0-1.553-.132-2.368-.604-3.73-.318-.916-1.276-2.626-1.679-2.993-.154-.141-.432.291-1.885 2.931-.936 1.703-1.764 3.131-1.839 3.173-.075.042-.135.496-.135 1.02v.944h6.142v-1.345Zm-25.352-1.27c.143-.13.261-.321.261-.424 0-.191-3.945-7.457-4.201-7.738-.18-.195-.92-.205-1.13-.014-.087.079-.157.274-.157.435 0 .367 4.016 7.71 4.3 7.86.332.177.645.137.927-.119Zm18.465.026c.416-.418 4.142-7.366 4.142-7.724 0-.452-.262-.646-.807-.599-.43.038-.45.07-2.49 3.781-1.131 2.06-2.058 3.873-2.059 4.031-.004.619.779.948 1.214.511ZM11.322 49.52c0-.1.12-.396.265-.655l.265-.472-.33-.443c-.182-.242-.33-.51-.33-.592 0-.083-.049-.15-.107-.15-.183 0-1.462.362-1.462.414 0 .151.38.8.817 1.398.48.656.882.884.882.5Zm34.821-.19c.357-.386.756-1.04.91-1.492.08-.233.015-.281-.595-.446a17.8 17.8 0 0 0-.716-.185c-.017 0-.113.147-.213.327-.1.18-.261.44-.358.58-.153.22-.137.341.122.92.164.368.345.669.402.669.057 0 .259-.168.448-.373ZM13.08 46.435c.52-.663.585-.806.458-1.02-.239-.407-.176-1.254.126-1.698.204-.3.272-.598.272-1.189 0-.433-.053-.788-.118-.788-.175 0-1.053.828-1.383 1.306-.431.623-.636 1.57-.551 2.543.077.874.3 1.617.485 1.617.059 0 .379-.347.711-.77Zm31.537.504c.814-1.484.412-3.398-.998-4.753-.673-.647-.803-.593-.803.333 0 .635.06.86.327 1.216.357.477.404.89.181 1.566-.138.42-.118.474.425 1.166.314.4.604.73.646.733.042.003.142-.114.222-.261Zm-34.373-.583.425-.112v-.87c0-.952-.027-.982-1.078-1.19l-.36-.072v1.17c0 1.224.05 1.387.386 1.262a8.63 8.63 0 0 1 .627-.188Zm37.344-.13c.043-.212.06-.76.038-1.218-.039-.81-.049-.831-.367-.796a5.68 5.68 0 0 0-.751.158l-.425.122v1.75l.62.173c.342.095.663.178.714.185.05.007.127-.162.17-.374Zm-36.39-3.135c.072-.172.247-.46.389-.642.142-.181.258-.4.258-.484 0-.188-.781-.939-.973-.936-.318.005-1.421 1.9-1.215 2.088.094.086.825.256 1.178.274.138.008.286-.115.363-.3Zm6.245-.094a14.812 14.812 0 0 1 1.565-.608c.373-.11.678-.214.678-.229 0-.015-.096-.2-.212-.413-.259-.471-.183-1.34.146-1.67.218-.22.205-.249-.33-.738a19.886 19.886 0 0 1-1.203-1.253c-.532-.611-.715-.743-1.033-.743-.714 0-1.56.54-1.825 1.166-.064.152-.117 1.208-.117 2.347 0 2.07 0 2.072.294 2.073.162 0 .47.107.686.237.216.13.408.236.428.237.02 0 .435-.182.923-.406Zm23.282.169c.282-.13.603-.238.714-.238.174 0 .201-.296.201-2.18 0-2.067-.016-2.202-.294-2.573-.352-.469-1.056-.833-1.599-.828-.314.003-.486.115-.851.558a20.84 20.84 0 0 1-1.162 1.248l-.704.694.23.387c.226.384.23 1.09.008 1.696-.08.22.005.282.736.528.454.153 1.12.427 1.48.608.36.182.67.332.691.334.02.002.269-.103.55-.234Zm6.306.045c.125-.034.228-.112.228-.175 0-.184-.73-1.448-1.024-1.772l-.268-.297-.543.49-.543.488.34.49c.187.268.34.532.34.586 0 .358.565.432 1.47.19Zm-10.857-1.668c.334-.274.307-.816-.052-1.044-.254-.162-1.207-.185-7.718-.185-4.871 0-7.516.042-7.681.123-.292.142-.357.923-.096 1.16.118.108 2.014.143 7.732.143 6.866 0 7.598-.019 7.815-.197Zm-22.83-.752c.543-.339.57-.384.619-1.04.028-.377.037-.704.019-.728-.138-.185-2.268.946-2.268 1.204 0 .13.845.919.983.919.045 0 .336-.16.648-.355Zm31.343-.098.486-.453-.296-.247c-.354-.294-1.692-.986-1.908-.986-.1 0-.153.246-.153.705 0 .695.008.71.555 1.06.306.194.617.358.693.364.075.005.355-.194.623-.443Zm-7.752-2.251c1.127-1.075 1.631-1.699 2.185-2.706.35-.637.898-2.112 1.072-2.885.182-.812.182-3.276 0-4.088-.963-4.286-4.546-7.638-9.178-8.587-1.188-.244-3.967-.242-5.145.002-1.045.217-1.756.42-1.93.553a.546.546 0 0 1-.282.094c-.087 0-.59.221-1.117.491-3.777 1.933-6.121 5.57-6.121 9.498 0 2.962 1.343 5.826 3.674 7.836l.758.654 7.617-.026 7.618-.026.85-.81Zm-21.3-4.894c0-.192-.06-.493-.135-.67-.074-.177-.135-1.064-.135-1.97 0-1.362.055-1.85.321-2.806.178-.636.362-1.25.411-1.365.08-.186-.01-.208-.863-.208-1.508 0-1.429-.205-1.429 3.694 0 3.803-.04 3.674 1.12 3.674.698 0 .71-.006.71-.349Zm27.155.206c.224-.203.224-6.879 0-7.082-.156-.142-1.95-.208-2.093-.077-.04.036.033.317.162.625.603 1.444.803 3.872.454 5.529-.108.512-.196.98-.196 1.04 0 .161 1.491.13 1.673-.035Z" mask="url(#b)"/>
    <mask id="c" fill="#fff">
      <path d="M22.317 39.753c-.935-.117-1.613-.535-2.33-1.438-.876-1.103-1.204-1.699-1.638-2.977-.717-2.108-.367-5.329.76-7.003.052-.077.187-.286.3-.464.476-.749.623-.923 1.459-1.724 1.399-1.34 3.055-2.223 5.07-2.7.823-.196 1.2-.23 2.5-.23 1.299 0 1.675.034 2.498.23.895.211 1.472.4 1.99.649.735.354 1.458.754 1.638.906.116.099.235.179.265.179.03 0 .273.177.54.394 2.785 2.257 4.12 5.985 3.269 9.123-.62 2.285-1.875 4.153-3.247 4.831l-.528.261-6.018.013c-3.31.008-6.248-.015-6.528-.05Zm12.571-1.172c.444-.169.553-.27 1.157-1.063.561-.739.918-1.394 1.29-2.366.272-.714.282-.807.274-2.504-.008-1.656-.025-1.806-.28-2.485-.548-1.453-1.32-2.578-2.436-3.553-1.836-1.603-3.894-2.353-6.456-2.353-1.576 0-2.668.219-4.182.839-1.518.622-3.36 2.279-4.14 3.723-.497.92-.6 1.185-.805 2.08-.572 2.49.085 5.111 1.747 6.98.28.314.654.629.833.7.265.106 1.45.13 6.474.137 5.313.006 6.2-.012 6.524-.135Z"/>
    </mask>
    <path fill="#F1F1F1" d="M22.317 39.753c-.935-.117-1.613-.535-2.33-1.438-.876-1.103-1.204-1.699-1.638-2.977-.717-2.108-.367-5.329.76-7.003.052-.077.187-.286.3-.464.476-.749.623-.923 1.459-1.724 1.399-1.34 3.055-2.223 5.07-2.7.823-.196 1.2-.23 2.5-.23 1.299 0 1.675.034 2.498.23.895.211 1.472.4 1.99.649.735.354 1.458.754 1.638.906.116.099.235.179.265.179.03 0 .273.177.54.394 2.785 2.257 4.12 5.985 3.269 9.123-.62 2.285-1.875 4.153-3.247 4.831l-.528.261-6.018.013c-3.31.008-6.248-.015-6.528-.05Zm12.571-1.172c.444-.169.553-.27 1.157-1.063.561-.739.918-1.394 1.29-2.366.272-.714.282-.807.274-2.504-.008-1.656-.025-1.806-.28-2.485-.548-1.453-1.32-2.578-2.436-3.553-1.836-1.603-3.894-2.353-6.456-2.353-1.576 0-2.668.219-4.182.839-1.518.622-3.36 2.279-4.14 3.723-.497.92-.6 1.185-.805 2.08-.572 2.49.085 5.111 1.747 6.98.28.314.654.629.833.7.265.106 1.45.13 6.474.137 5.313.006 6.2-.012 6.524-.135Z"/>
    <path fill="#9D9CA1" d="M22.317 39.753h3v-2.65l-2.63-.327-.37 2.977Zm-2.33-1.438-2.35 1.866 2.35-1.866Zm-1.638-2.977 2.84-.966-2.84.966Zm.76-7.003-2.487-1.676 2.488 1.676Zm.3-.464-2.532-1.608 2.533 1.608Zm1.459-1.724-2.076-2.165 2.076 2.165Zm5.07-2.7-.692-2.92.692 2.92Zm4.998 0 .692-2.92-.692 2.92Zm1.99.649 1.3-2.704-1.3 2.704Zm1.638.906 1.94-2.288-1.94 2.288Zm.806.573-1.889 2.33 1.889-2.33Zm3.268 9.123-2.895-.786 2.895.786Zm-3.247 4.831-1.33-2.689 1.33 2.69Zm-.528.261.007 3 .698-.001.626-.31-1.33-2.689Zm-6.018.013-.006-3 .006 3Zm-6.528-.05h-3v2.65l2.629.327.37-2.977Zm13.728-2.235-2.388-1.816 2.388 1.816Zm1.29-2.366 2.802 1.07-2.803-1.07Zm.274-2.504-3 .015 3-.015Zm-.28-2.485L34.52 31.22l2.807-1.057Zm-2.436-3.553 1.973-2.26-1.973 2.26Zm-6.456-2.353v-3 3Zm-4.182.839-1.137-2.776 1.137 2.776Zm-4.14 3.723-2.64-1.425 2.64 1.425Zm-.805 2.08 2.923.672-2.924-.671Zm1.747 6.98 2.241-1.995-2.241 1.995Zm.833.7-1.11 2.787 1.11-2.787Zm6.474.137.004-3-.004 3Zm-5.676-1.94c-.057-.007-.075-.015-.068-.012.01.003.021.009.026.012.007.004-.093-.054-.31-.327l-4.698 3.732c1.09 1.371 2.426 2.314 4.308 2.549l.742-5.954Zm-.352-.327c-.67-.845-.828-1.139-1.147-2.077l-5.68 1.931c.55 1.619 1.048 2.517 2.129 3.878l4.698-3.732Zm-1.147-2.077c-.181-.533-.275-1.404-.17-2.374.109-.992.38-1.692.579-1.987l-4.976-3.352c-.93 1.379-1.397 3.127-1.567 4.69-.172 1.586-.082 3.38.453 4.954l5.68-1.93Zm.409-4.361c.076-.113.23-.352.344-.532l-5.065-3.216-.16.25-.065.1-.022.033-.008.013 4.976 3.352Zm.344-.532c.226-.355.29-.44.352-.513.085-.1.221-.242.65-.653l-4.152-4.331c-.407.39-.763.735-1.079 1.109-.34.402-.586.778-.836 1.172l5.065 3.216Zm1.002-1.166c.986-.945 2.154-1.584 3.686-1.948l-1.384-5.838c-2.498.592-4.643 1.718-6.454 3.455l4.152 4.331Zm3.686-1.948c.339-.08.488-.104.654-.12.209-.018.506-.028 1.153-.028v-6c-1.422 0-2.055.04-3.191.31l1.384 5.838Zm1.807-.148c.647 0 .945.01 1.154.029.165.015.314.04.653.12l1.384-5.839c-1.136-.27-1.769-.31-3.19-.31v6Zm1.807.148c.794.189 1.138.318 1.38.434l2.602-5.407c-.792-.38-1.603-.629-2.598-.865l-1.384 5.838Zm1.38.434c.321.154.635.317.877.45.121.068.208.119.26.15l.02.013s-.065-.044-.157-.12l3.88-4.578c-.359-.304-.86-.582-1.099-.714a24.194 24.194 0 0 0-1.179-.608L31.624 26.8Zm1 .492c.129.109.276.223.43.326a3.189 3.189 0 0 0 .705.369c.096.036.513.195 1.07.195v-6a2.971 2.971 0 0 1 1.36.331 2.048 2.048 0 0 1 .315.202l-3.88 4.577Zm2.205.89a2.985 2.985 0 0 1-1.374-.336 2.284 2.284 0 0 1-.186-.108c-.041-.026-.054-.037-.026-.016.048.035.134.1.238.185l3.778-4.662a12.361 12.361 0 0 0-.482-.372 5.595 5.595 0 0 0-.269-.185 3.128 3.128 0 0 0-.588-.301c-.064-.026-.503-.205-1.091-.205v6Zm-1.348-.275c1.982 1.606 2.764 4.157 2.262 6.006l5.79 1.572c1.202-4.427-.687-9.333-4.274-12.24l-3.778 4.662Zm2.262 6.006c-.518 1.908-1.42 2.798-1.682 2.928l2.66 5.378c2.48-1.227 4.089-4.071 4.812-6.734l-5.79-1.572ZM34.06 36.84l-.528.261 2.66 5.378.529-.261-2.661-5.378Zm.796-.05-6.018.013.013 6 6.018-.013-.013-6Zm-6.018.013c-1.648.004-3.2 0-4.37-.01-.588-.004-1.072-.01-1.422-.016-.46-.009-.488-.017-.36-.001l-.741 5.954c.27.033.713.04.987.046.383.007.892.013 1.489.018 1.195.009 2.767.013 4.43.01l-.013-6Zm-3.522 2.95h-6 6Zm10.637 1.632a4.4 4.4 0 0 0 1.483-.892c.393-.362.738-.82.996-1.16l-4.776-3.631a27.85 27.85 0 0 1-.3.384l-.037.045a1.688 1.688 0 0 1 .396-.299c.057-.032.1-.052.12-.06.017-.008.018-.007-.014.005l2.132 5.608Zm2.479-2.052c.754-.991 1.243-1.904 1.704-3.111l-5.605-2.14c-.282.737-.506 1.135-.875 1.62l4.776 3.631Zm1.704-3.111c.153-.401.343-.901.422-1.627.059-.537.054-1.192.05-1.962l-6 .03c.002.43.003.723 0 .945-.004.224-.012.309-.014.334l.004-.026a.639.639 0 0 1 .012-.05l-.013.04-.066.177 5.605 2.139Zm.472-3.589c-.004-.766-.007-1.404-.067-1.93a6.17 6.17 0 0 0-.406-1.597L34.52 31.22c.06.16.068.19.067.189-.007-.028-.01-.05-.008-.033.005.04.013.136.019.359.005.221.008.51.01.928l6-.03Zm-.473-3.527c-.714-1.894-1.762-3.44-3.27-4.756l-3.946 4.52c.726.633 1.22 1.338 1.6 2.35l5.616-2.114Zm-3.27-4.756c-2.412-2.106-5.181-3.093-8.429-3.093v6c1.877 0 3.223.513 4.483 1.613l3.946-4.52Zm-8.429-3.093c-1.981 0-3.458.3-5.32 1.063l2.275 5.552c1.167-.478 1.873-.615 3.045-.615v-6Zm-5.32 1.063c-1.17.48-2.299 1.274-3.215 2.098-.916.824-1.826 1.862-2.427 2.976l5.28 2.85c.178-.33.58-.843 1.159-1.364.58-.521 1.131-.866 1.478-1.008l-2.274-5.552Zm-5.642 5.074a12.09 12.09 0 0 0-.67 1.392c-.194.502-.31.965-.42 1.442l5.848 1.343c.096-.418.135-.536.168-.62.04-.102.109-.253.353-.707l-5.28-2.85Zm-1.09 2.834c-.783 3.412.107 7.033 2.43 9.645l4.483-3.989c-1-1.124-1.424-2.747-1.065-4.313l-5.847-1.343Zm2.43 9.645c.241.27.51.528.765.743.162.136.62.52 1.2.75L23 35.792a2.409 2.409 0 0 1 .424.22c.034.023.04.03.018.012a1.506 1.506 0 0 1-.144-.14l-4.482 3.989Zm1.965 1.493c.549.219 1.11.255 1.299.27.312.023.71.038 1.2.048.993.021 2.576.029 5.081.032l.008-6a294.81 294.81 0 0 1-4.962-.03 17.88 17.88 0 0 1-.87-.033c-.266-.02.048-.027.464.139l-2.22 5.574Zm7.58.35c2.645.003 4.232 0 5.199-.02.477-.01.869-.024 1.187-.053.294-.026.738-.08 1.208-.258l-2.132-5.608c.308-.117.52-.122.39-.11a13 13 0 0 1-.777.03c-.886.019-2.4.022-5.067.019l-.008 6Z" mask="url(#c)"/>
    <mask id="d" fill="#fff">
      <path d="M21.96 30.313a8.179 8.179 0 0 1-.482-.181l-.328-.134.226-.437c.125-.241.25-.459.279-.484.028-.026.185-.235.348-.464.375-.527 1.442-1.49 2.017-1.82 1.173-.674 2.526-1.121 3.665-1.212l.677-.054-.017.543-.017.543-.915.106c-.917.106-2.175.495-2.4.742-.066.073-.172.132-.236.132-.065 0-.416.245-.781.545-.674.553-1.372 1.387-1.619 1.936-.14.31-.157.32-.417.24Z"/>
    </mask>
    <path fill="#F1F1F1" d="M21.96 30.313a8.179 8.179 0 0 1-.482-.181l-.328-.134.226-.437c.125-.241.25-.459.279-.484.028-.026.185-.235.348-.464.375-.527 1.442-1.49 2.017-1.82 1.173-.674 2.526-1.121 3.665-1.212l.677-.054-.017.543-.017.543-.915.106c-.917.106-2.175.495-2.4.742-.066.073-.172.132-.236.132-.065 0-.416.245-.781.545-.674.553-1.372 1.387-1.619 1.936-.14.31-.157.32-.417.24Z"/>
    <path fill="#9D9CA1" d="m21.96 30.313-.887 2.866.433.134h.454v-3Zm-.482-.181-1.132 2.778 1.132-2.778Zm-.328-.134-2.664-1.38-1.511 2.918 3.042 1.24 1.133-2.778Zm.226-.437-2.664-1.38 2.664 1.38Zm.279-.484-1.998-2.239 1.998 2.239Zm.348-.464 2.446 1.738-2.446-1.738Zm2.017-1.82 1.494 2.601-1.494-2.601Zm3.665-1.212.239 2.99-.239-2.99Zm.677-.054 2.998.093.105-3.35-3.342.266.239 2.99Zm-.034 1.086.346 2.98 2.572-.299.08-2.588-2.998-.093Zm-.915.106.346 2.98-.346-2.98Zm-2.4.742-2.216-2.022 2.216 2.022Zm-1.017.677 1.903 2.319-1.903-2.32Zm-1.619 1.936 2.735 1.233-2.735-1.233Zm-.417.24.887-2.867-.433-.134h-.454v3Zm.887-2.867.04.013-.006-.002a4.698 4.698 0 0 1-.27-.104l-2.265 5.556c.189.077.509.202.727.27l1.774-5.733Zm-.237-.093-.328-.134-2.265 5.556.33.134 2.263-5.556Zm1.204 4.024.226-.438-5.328-2.759-.226.438 5.328 2.759Zm.226-.438c.046-.088.087-.163.112-.206.014-.024.01-.017-.006.009a2.243 2.243 0 0 1-.183.249 2.9 2.9 0 0 1-.31.323l-3.996-4.477c-.271.243-.442.49-.449.5a3.735 3.735 0 0 0-.12.177 7.782 7.782 0 0 0-.376.666l5.328 2.759Zm-.388.375c.172-.154.296-.302.3-.308a4.366 4.366 0 0 0 .225-.283c.082-.11.178-.24.272-.373l-4.891-3.476c-.07.097-.133.185-.178.244l-.024.032-.005.007.01-.013a2.035 2.035 0 0 1 .166-.183 3.272 3.272 0 0 1 .13-.124l3.995 4.477Zm.797-.964c-.025.035.002-.006.118-.128a7.401 7.401 0 0 1 .787-.71c.134-.105.186-.134.16-.119l-2.988-5.203c-.568.326-1.167.82-1.6 1.211-.429.387-.986.936-1.368 1.473l4.89 3.476Zm1.065-.957c.858-.493 1.787-.773 2.41-.823l-.477-5.98c-1.655.131-3.434.746-4.921 1.6l2.988 5.203Zm2.41-.823.676-.054-.477-5.98-.676.053.477 5.981Zm-2.56-3.138-.018.543 5.997.187.017-.543-5.997-.187Zm-.018.543-.017.543 5.997.187.017-.543-5.997-.187Zm2.636-2.343-.915.106.692 5.96.915-.106-.692-5.96Zm-.915.106a11.61 11.61 0 0 0-2 .432 8.526 8.526 0 0 0-.931.344c-.154.068-.815.35-1.34.924l4.433 4.045a2.615 2.615 0 0 1-.548.455c-.077.046-.121.064-.109.059.023-.01.112-.046.268-.095a6.24 6.24 0 0 1 .49-.128c.174-.039.322-.064.43-.076l-.693-5.96Zm-4.27 1.7a2.52 2.52 0 0 1 1.086-.703c.167-.056.482-.143.894-.143v6c.785 0 1.363-.3 1.574-.416.292-.163.6-.39.878-.693l-4.432-4.045Zm1.98-.846c-.705 0-1.236.26-1.254.268a3.61 3.61 0 0 0-.351.18c-.15.087-.287.18-.39.252-.218.152-.46.337-.69.526l3.807 4.638a5.64 5.64 0 0 1 .318-.245c.038-.026.023-.014-.03.018-.024.013-.108.061-.231.116a2.812 2.812 0 0 1-.64.197c-.125.023-.311.05-.54.05v-6Zm-2.685 1.226c-.882.724-1.947 1.906-2.45 3.022l5.47 2.466c-.03.066-.037.064.014-.011a4.585 4.585 0 0 1 .773-.84l-3.807-4.637Zm-2.45 3.022c-.048.107-.011.015.059-.104.06-.102.361-.621 1.02-.999a2.856 2.856 0 0 1 1.802-.357c.246.034.434.1.324.066l-1.774 5.732c.02.006.307.102.634.146a3.145 3.145 0 0 0 3.171-1.556c.12-.205.212-.414.234-.462l-5.47-2.466Zm2.318-1.528v6-6Z" mask="url(#d)"/>
    <path fill="#F1F1F1" stroke="#9D9CA1" stroke-width="3" d="M21.772 32.182Zm-.004 0-.031-.003.031.003Z"/>
    <mask id="e" fill="#fff">
      <path d="M24.204 55.429c-.665-.126-1.152-.453-1.465-.983-.212-.36-.218-.474-.218-3.71 0-3.292.003-3.346.233-3.77a1.98 1.98 0 0 1 .663-.696l.43-.265h9.103l.364.235c.54.35.775.67.888 1.208.138.664.13 5.983-.01 6.579-.132.555-.47.952-1.05 1.235-.412.2-.505.205-4.5.22-2.245.007-4.242-.016-4.438-.053Zm8.714-1.268c.14-.127.16-.57.16-3.448 0-2.942-.018-3.32-.169-3.472-.158-.159-.433-.17-4.488-.17-4.183 0-4.326.007-4.523.186-.196.179-.204.31-.204 3.448 0 2.906.018 3.281.169 3.432.158.16.434.17 4.532.17 3.83 0 4.382-.018 4.523-.146Z"/>
    </mask>
    <path fill="#F1F1F1" d="M24.204 55.429c-.665-.126-1.152-.453-1.465-.983-.212-.36-.218-.474-.218-3.71 0-3.292.003-3.346.233-3.77a1.98 1.98 0 0 1 .663-.696l.43-.265h9.103l.364.235c.54.35.775.67.888 1.208.138.664.13 5.983-.01 6.579-.132.555-.47.952-1.05 1.235-.412.2-.505.205-4.5.22-2.245.007-4.242-.016-4.438-.053Zm8.714-1.268c.14-.127.16-.57.16-3.448 0-2.942-.018-3.32-.169-3.472-.158-.159-.433-.17-4.488-.17-4.183 0-4.326.007-4.523.186-.196.179-.204.31-.204 3.448 0 2.906.018 3.281.169 3.432.158.16.434.17 4.532.17 3.83 0 4.382-.018 4.523-.146Z"/>
    <path fill="#9D9CA1" d="M24.204 55.429v3l.557-5.948-.557 2.948Zm-1.465-.983 2.585-1.523-2.585 1.523Zm.015-7.48-2.638-1.43 2.638 1.43Zm.663-.696-1.575-2.553 1.575 2.553Zm.43-.265v-3h-.851l-.724.447 1.575 2.553Zm9.103 0 1.63-2.519-.744-.481h-.886v3Zm.364.235 1.63-2.519-1.63 2.52Zm.888 1.208-2.937.613 2.937-.613Zm-.01 6.579-2.92-.69v.001l2.92.689Zm-1.05 1.235 1.312 2.697-1.312-2.697Zm-4.5.22.01 3-.01-3Zm-4.438-.053v-3l-.557 5.947.557-2.947Zm8.714-1.268 2.018 2.22-2.018-2.22Zm-.008-6.92-2.127 2.117 2.127-2.117Zm-9.012.016-2.018-2.22 2.018 2.22Zm-.035 6.88-2.127 2.116 2.127-2.116Zm.898-1.656c.006 0 .11.023.25.117.147.099.253.222.313.325l-5.17 3.046c.8 1.355 2.073 2.14 3.493 2.407l1.114-5.895Zm.563.442c-.005-.009.113.187.187.459.051.19.045.285.034.111-.021-.365-.024-1.084-.024-2.757h-6c0 1.562 0 2.52.035 3.11.018.305.053.698.165 1.111.135.496.333.84.434 1.012l5.169-3.046Zm.197-2.187c0-1.708.002-2.416.024-2.775.01-.16.016-.064-.036.122-.065.23-.164.399-.117.312l-5.276-2.858c-.067.125-.253.46-.383.922a5.355 5.355 0 0 0-.176 1.131c-.037.597-.036 1.562-.036 3.146h6Zm-.13-2.341a1.17 1.17 0 0 1-.18.255 1.07 1.07 0 0 1-.219.173l-3.15-5.106a4.974 4.974 0 0 0-1.726 1.82l5.276 2.858Zm-.399.428.43-.265-3.15-5.106-.43.265 3.15 5.106Zm-1.145.182h4.552v-6h-4.552v6Zm4.552 0h4.551v-6H28.4v6Zm2.922-.481.363.235 3.26-5.038-.364-.235-3.26 5.038Zm.363.235c.098.063-.031-.002-.183-.21a1.532 1.532 0 0 1-.18-.316 1.028 1.028 0 0 1-.056-.172l5.873-1.225a4.662 4.662 0 0 0-.802-1.839c-.433-.59-.95-.989-1.392-1.276l-3.26 5.038Zm-.42-.698c-.033-.162-.026-.216-.012.018.01.164.02.392.027.676.016.564.023 1.28.022 2.003-.001.725-.01 1.435-.028 1.99-.009.28-.019.5-.029.655-.016.245-.022.143.027-.065l5.84 1.377c.084-.357.11-.755.12-.918.017-.252.03-.55.04-.863.019-.631.029-1.403.03-2.166a81.47 81.47 0 0 0-.024-2.178 27.1 27.1 0 0 0-.036-.875 6.407 6.407 0 0 0-.103-.88l-5.873 1.226Zm.007 5.277c.035-.147.12-.348.278-.534a.99.99 0 0 1 .28-.24l2.625 5.395c1.27-.618 2.29-1.688 2.657-3.244l-5.84-1.377Zm.559-.774c-.036.017.13-.066.343-.113.127-.029.158-.018-.084-.006-.487.023-1.416.029-3.459.036l.022 6c1.953-.007 3.069-.011 3.73-.044a6.465 6.465 0 0 0 1.099-.13c.471-.106.803-.265.973-.348l-2.624-5.395Zm-3.2-.083c-1.11.004-2.154 0-2.94-.009a57.708 57.708 0 0 1-1.17-.026c-.124-.006.032-.005.24.035l-1.113 5.895c.257.05.519.06.55.062a64.157 64.157 0 0 0 1.422.034c.823.01 1.9.013 3.033.01l-.022-6Zm-4.426 5.948v-6 6Zm10.732-2.049a3.307 3.307 0 0 0 1.004-1.799 6.32 6.32 0 0 0 .107-.973c.027-.572.031-1.483.031-2.895h-6c0 1.466-.006 2.216-.024 2.617-.01.22-.02.178.01.036a2.7 2.7 0 0 1 .836-1.425l4.036 4.44Zm1.142-5.667c0-1.44-.004-2.357-.031-2.928a5.98 5.98 0 0 0-.12-1.004 3.35 3.35 0 0 0-.891-1.656l-4.253 4.233a2.74 2.74 0 0 1-.52-.73 2.472 2.472 0 0 1-.192-.542c-.036-.162-.028-.225-.017-.01.019.391.024 1.134.024 2.637h6Zm-1.042-5.588a3.335 3.335 0 0 0-1.709-.913 6.601 6.601 0 0 0-1.087-.113c-.668-.025-1.824-.027-3.819-.027v6c2.06 0 3.069.003 3.592.023.295.01.244.023.083-.011a2.507 2.507 0 0 1-.616-.22 2.735 2.735 0 0 1-.697-.506l4.253-4.233Zm-6.615-1.053c-2.05 0-3.217 0-3.88.028a5.945 5.945 0 0 0-1.148.137 3.414 3.414 0 0 0-1.514.8l4.037 4.44a2.59 2.59 0 0 1-1.11.591c-.21.05-.307.038-.018.026.504-.02 1.501-.022 3.633-.022v-6Zm-6.541.966a3.353 3.353 0 0 0-.947 1.457 4.77 4.77 0 0 0-.206 1.199c-.033.56-.033 1.498-.033 3.011h6c0-.787 0-1.371.004-1.813.004-.453.01-.703.019-.844.004-.067.006-.07.001-.032a2.067 2.067 0 0 1-.084.349c-.067.205-.178.45-.354.698-.166.234-.329.382-.364.414l-4.037-4.44Zm-1.186 5.667c0 1.42.004 2.33.032 2.896a5.8 5.8 0 0 0 .12 1.002 3.35 3.35 0 0 0 .89 1.65l4.253-4.232c.21.212.386.458.517.724.118.241.171.441.194.543.037.165.029.23.018.019-.019-.385-.024-1.117-.024-2.602h-6Zm1.042 5.548c.534.537 1.15.797 1.714.915.384.08.786.1 1.09.112.672.025 1.838.027 3.855.027v-6c-2.082 0-3.101-.003-3.631-.023-.298-.011-.25-.023-.09.01.106.022.337.079.614.219.314.159.546.352.701.508l-4.253 4.232Zm6.659 1.054c1.895 0 3.047-.004 3.741-.027a8.84 8.84 0 0 0 .998-.075c.218-.033 1.063-.152 1.802-.825L30.9 51.941c.35-.319.706-.483.941-.566.214-.075.373-.1.405-.104.055-.008.003.003-.303.012-.575.019-1.614.024-3.548.024v6Z" mask="url(#e)"/>
    <mask id="f" fill="#fff">
      <path d="M25.122 48.927v-.557h1.224v1.113h-1.224v-.556Z"/>
    </mask>
    <path fill="#F1F1F1" d="M25.122 48.927v-.557h1.224v1.113h-1.224v-.556Z"/>
    <path fill="#9D9CA1" d="M25.122 48.37v-3h-3v3h3Zm1.224 0h3v-3h-3v3Zm0 1.113v3h3v-3h-3Zm-1.224 0h-3v3h3v-3Zm3-.556v-.557h-6v.557h6Zm-3 2.443h.612v-6h-.612v6Zm.612 0h.612v-6h-.612v6Zm-2.388-3v.557h6v-.557h-6Zm0 .557v.556h6v-.556h-6Zm3-2.444h-.612v6h.612v-6Zm-.612 0h-.612v6h.612v-6Zm2.388 3v-.556h-6v.556h6Z" mask="url(#f)"/>
    <mask id="g" fill="#fff">
      <path d="M27.774 48.927v-.557h1.224v1.113h-1.224v-.556Z"/>
    </mask>
    <path fill="#F1F1F1" d="M27.774 48.927v-.557h1.224v1.113h-1.224v-.556Z"/>
    <path fill="#9D9CA1" d="M27.774 48.37v-3h-3v3h3Zm1.224 0h3v-3h-3v3Zm0 1.113v3h3v-3h-3Zm-1.224 0h-3v3h3v-3Zm3-.556v-.557h-6v.557h6Zm-3 2.443h.612v-6h-.612v6Zm.612 0h.612v-6h-.612v6Zm-2.388-3v.557h6v-.557h-6Zm0 .557v.556h6v-.556h-6Zm3-2.444h-.612v6h.612v-6Zm-.612 0h-.612v6h.612v-6Zm2.388 3v-.556h-6v.556h6Z" mask="url(#g)"/>
    <mask id="h" fill="#fff">
      <path d="M30.426 48.927v-.557h1.224v1.113h-1.224v-.556Z"/>
    </mask>
    <path fill="#F1F1F1" d="M30.426 48.927v-.557h1.224v1.113h-1.224v-.556Z"/>
    <path fill="#9D9CA1" d="M30.426 48.37v-3h-3v3h3Zm1.224 0h3v-3h-3v3Zm0 1.113v3h3v-3h-3Zm-1.224 0h-3v3h3v-3Zm3-.556v-.557h-6v.557h6Zm-3 2.443h.612v-6h-.612v6Zm.612 0h.612v-6h-.612v6Zm-2.388-3v.557h6v-.557h-6Zm0 .557v.556h6v-.556h-6Zm3-2.444h-.612v6h.612v-6Zm-.612 0h-.612v6h.612v-6Zm2.388 3v-.556h-6v.556h6Z" mask="url(#h)"/>
  </g>
  <defs>
    <filter id="a" width="48.615" height="45" x="4.123" y="19" color-interpolation-filters="sRGB" filterUnits="userSpaceOnUse">
      <feFlood flood-opacity="0" result="BackgroundImageFix"/>
      <feColorMatrix in="SourceAlpha" result="hardAlpha" values="0 0 0 0 0 0 0 0 0 0 0 0 0 0 0 0 0 0 127 0"/>
      <feOffset dy="4"/>
      <feGaussianBlur stdDeviation="2"/>
      <feComposite in2="hardAlpha" operator="out"/>
      <feColorMatrix values="0 0 0 0 0 0 0 0 0 0 0 0 0 0 0 0 0 0 0.25 0"/>
      <feBlend in2="BackgroundImageFix" result="effect1_dropShadow_1_38"/>
      <feBlend in="SourceGraphic" in2="effect1_dropShadow_1_38" result="shape"/>
    </filter>
  </defs>
</svg>
