<svg xmlns="http://www.w3.org/2000/svg" width="43" height="43" fill="none" viewBox="0 0 43 43">
  <g filter="url(#a)">
    <path fill="#F1F1F1" d="M35.515 27.453C37.74 25.47 39 22.826 39 20.083c0-2.915-1.365-5.642-3.843-7.678-2.412-1.98-5.605-3.072-8.99-3.072-3.386 0-6.579 1.091-8.99 3.072-2.479 2.036-3.844 4.763-3.844 7.678 0 2.916 1.365 5.642 3.843 7.678 2.412 1.981 5.605 3.072 8.99 3.072.452 0 .905-.02 1.356-.06l.769.667A14.572 14.572 0 0 0 37.833 35H39v-2.484l-.342-.341a14.522 14.522 0 0 1-3.143-4.722Zm-5.696 2.224-1.543-1.338-.515.064c-.529.064-1.061.097-1.595.097-5.79 0-10.5-3.776-10.5-8.417 0-4.64 4.71-8.416 10.5-8.416s10.5 3.775 10.5 8.416c0 2.312-1.153 4.47-3.248 6.078l-.672.516.31.877A16.866 16.866 0 0 0 35.82 32.5a12.24 12.24 0 0 1-6-2.822Z"/>
    <path fill="#F1F1F1" d="M7.222 21.982a16.078 16.078 0 0 0 2.538-4.595l.308-.873-.672-.515c-1.975-1.516-3.063-3.55-3.063-5.728 0-4.377 4.449-7.938 9.917-7.938 4.023 0 7.493 1.927 9.047 4.689a17.932 17.932 0 0 1 2.607.063c-.6-1.556-1.643-2.976-3.077-4.153C22.526 1.042 19.48 0 16.25 0c-3.23 0-6.276 1.041-8.578 2.932C5.304 4.877 4 7.483 4 10.27c0 2.61 1.192 5.125 3.3 7.017a13.738 13.738 0 0 1-2.958 4.428L4 22.058V24.5h1.167a13.9 13.9 0 0 0 6.214-1.468 11.476 11.476 0 0 1-.37-2.453 11.574 11.574 0 0 1-3.79 1.403Z"/>
    <path fill="#F1F1F1" stroke="#F1F1F1" d="M32.5 27 29 28.5c-1 .429 8 5.5 7 4-.8-1.2-2.667-4.167-3.5-5.5Z"/>
    <ellipse cx="26.5" cy="20" fill="#F1F1F1" rx="11" ry="9"/>
  </g>
  <defs>
    <filter id="a" width="43" height="43" x="0" y="0" color-interpolation-filters="sRGB" filterUnits="userSpaceOnUse">
      <feFlood flood-opacity="0" result="BackgroundImageFix"/>
      <feColorMatrix in="SourceAlpha" result="hardAlpha" values="0 0 0 0 0 0 0 0 0 0 0 0 0 0 0 0 0 0 127 0"/>
      <feOffset dy="4"/>
      <feGaussianBlur stdDeviation="2"/>
      <feComposite in2="hardAlpha" operator="out"/>
      <feColorMatrix values="0 0 0 0 0 0 0 0 0 0 0 0 0 0 0 0 0 0 0.25 0"/>
      <feBlend in2="BackgroundImageFix" result="effect1_dropShadow_1_33"/>
      <feBlend in="SourceGraphic" in2="effect1_dropShadow_1_33" result="shape"/>
    </filter>
  </defs>
</svg>
