<svg xmlns="http://www.w3.org/2000/svg" width="43" height="43" fill="none" viewBox="0 0 43 43">
  <g filter="url(#a)">
    <path fill="#F1F1F1" fill-opacity=".5" d="M35.515 27.454C37.74 25.47 39 22.827 39 20.084c0-2.916-1.365-5.643-3.843-7.679-2.412-1.98-5.605-3.072-8.99-3.072-3.386 0-6.579 1.091-8.99 3.072-2.479 2.036-3.844 4.763-3.844 7.678 0 2.916 1.365 5.643 3.843 7.679 2.412 1.98 5.605 3.072 8.99 3.072.452 0 .905-.02 1.356-.06l.769.666A14.572 14.572 0 0 0 37.833 35H39v-2.483l-.342-.342a14.521 14.521 0 0 1-3.143-4.721Zm-5.696 2.223-1.543-1.337-.515.063a13.07 13.07 0 0 1-1.595.097c-5.79 0-10.5-3.776-10.5-8.417 0-4.64 4.71-8.416 10.5-8.416s10.5 3.775 10.5 8.416c0 2.313-1.153 4.471-3.248 6.079l-.672.515.31.878A16.866 16.866 0 0 0 35.82 32.5a12.238 12.238 0 0 1-6-2.823Z"/>
    <path fill="#F1F1F1" fill-opacity=".5" d="M7.222 21.983a16.078 16.078 0 0 0 2.538-4.596l.308-.873-.672-.515c-1.975-1.516-3.063-3.55-3.063-5.728 0-4.377 4.449-7.938 9.917-7.938 4.023 0 7.493 1.928 9.047 4.689a17.936 17.936 0 0 1 2.607.063c-.6-1.556-1.643-2.976-3.077-4.153C22.526 1.042 19.48 0 16.25 0c-3.23 0-6.276 1.041-8.578 2.932C5.304 4.877 4 7.483 4 10.27c0 2.61 1.192 5.125 3.3 7.017a13.737 13.737 0 0 1-2.958 4.429L4 22.058V24.5h1.167a13.9 13.9 0 0 0 6.214-1.468 11.475 11.475 0 0 1-.37-2.453 11.574 11.574 0 0 1-3.79 1.404Z"/>
  </g>
  <defs>
    <filter id="a" width="43" height="43" x="0" y="0" color-interpolation-filters="sRGB" filterUnits="userSpaceOnUse">
      <feFlood flood-opacity="0" result="BackgroundImageFix"/>
      <feColorMatrix in="SourceAlpha" result="hardAlpha" values="0 0 0 0 0 0 0 0 0 0 0 0 0 0 0 0 0 0 127 0"/>
      <feOffset dy="4"/>
      <feGaussianBlur stdDeviation="2"/>
      <feComposite in2="hardAlpha" operator="out"/>
      <feColorMatrix values="0 0 0 0 0 0 0 0 0 0 0 0 0 0 0 0 0 0 0.25 0"/>
      <feBlend in2="BackgroundImageFix" result="effect1_dropShadow_1_20"/>
      <feBlend in="SourceGraphic" in2="effect1_dropShadow_1_20" result="shape"/>
    </filter>
  </defs>
</svg>
