<svg xmlns="http://www.w3.org/2000/svg" width="56" height="75" fill="none" viewBox="0 0 56 75">
  <g filter="url(#a)">
    <path fill="#F1F1F1" fill-opacity=".5" d="M22.518 51.236c-1.373-.076-1.829-.15-3.505-.57-6.06-1.516-11.36-6.322-13.198-11.967-.722-2.216-.817-2.865-.815-5.525.002-2.066.043-2.646.25-3.51.516-2.166 1.236-3.946 2.271-5.614.49-.79.795-.96 1.136-.637.216.205.18.44-.158 1.015-1.873 3.187-2.6 6.004-2.45 9.494.11 2.552.611 4.48 1.748 6.734 1.022 2.028 2.88 4.28 4.632 5.612.312.237.595.463.628.501.034.038.44.315.903.614 1.634 1.055 3.692 1.91 5.904 2.452 1.211.297 1.422.313 4.133.316 1.971.001 3.045-.045 3.465-.149l1.337-.33c1.42-.351 3.12-1.027 4.376-1.74.782-.444 1.762-1.07 1.762-1.126 0-.032-.11-.261-.243-.51-.465-.862-.223-1.994.577-2.703.507-.45 1.52-.696 2.146-.523.274.076.618.211.765.3.256.154.295.121.929-.787 2.17-3.108 3.119-6.369 2.955-10.157-.136-3.148-.94-5.646-2.668-8.288-2.502-3.825-6.32-6.442-11.11-7.617-1.262-.31-1.427-.322-4.29-.324-3.19-.002-3.61.05-5.714.71-2.006.627-4.416 1.944-5.956 3.254l-.669.569 1.396 1.33c.768.731 1.438 1.33 1.489 1.33.05 0 .298-.173.549-.383 1.14-.959 2.825-1.856 4.528-2.412 2.729-.89 6.121-.89 8.874.002 1.013.328 2.65 1.072 3.187 1.448l.35.245.535-.27c1.28-.642 2.833-.102 3.392 1.182.273.629.241 1.211-.103 1.854l-.296.554.395.588c.83 1.234 1.427 2.627 1.86 4.334.296 1.17.29 4.203-.012 5.29-.114.411-.256.93-.315 1.152-.608 2.281-2.853 5.3-5.111 6.871-3.632 2.526-8.406 3.248-12.695 1.92-3.914-1.213-7.128-4.123-8.749-7.924-.106-.25-.337-.975-.513-1.611-.277-1.004-.32-1.4-.33-2.998-.01-1.95.053-2.346.662-4.144.346-1.023.71-1.774 1.384-2.855.285-.458.397-.547.65-.518.631.072.623.346-.05 1.559-1.189 2.148-1.556 3.546-1.552 5.9.003 1.73.155 2.651.677 4.087.276.759 1.25 2.586 1.552 2.91.105.113.379.437.608.72 1.478 1.82 4.083 3.43 6.635 4.1 1.115.292 1.393.319 3.402.323 2.043.004 2.268-.017 3.404-.322 2.472-.664 4.78-2.04 6.336-3.78.724-.809.81-.917 1.209-1.534 1.42-2.194 1.926-3.92 1.922-6.561-.002-1.481-.048-1.895-.321-2.908-.306-1.134-1-2.68-1.62-3.61-.265-.4-.323-.43-.605-.329-.694.25-1.736.027-2.345-.503-.628-.546-.952-1.701-.693-2.474.065-.194-.057-.306-.748-.681-2.178-1.184-3.995-1.64-6.54-1.64-3.171 0-6.1.993-8.265 2.802l-.486.407 1.41 1.342 1.41 1.342.839-.544c1.063-.689 1.872-1.039 3.058-1.322 2.554-.61 5.56.044 7.603 1.652.938.739 1.17.983 1.827 1.919.752 1.071 1.114 1.963 1.366 3.37.21 1.168.212 1.293.02 2.425-.322 1.894-1.186 3.51-2.561 4.786-.987.917-1.82 1.41-3.378 2.004-.35.134-.455.246-.517.557-.169.85-1.305 1.699-2.285 1.704-.994.006-2.17-.82-2.359-1.658-.1-.441-.265-.641-.53-.641-.253 0-1.929-.798-2.4-1.142-.746-.546-1.661-1.478-2.154-2.193-.755-1.097-1.149-2.07-1.375-3.4-.186-1.098-.186-1.253.008-2.36.114-.65.358-1.525.541-1.944.276-.63.387-.766.645-.795.177-.02.382.046.474.152.139.158.103.36-.24 1.345-.344.988-.406 1.332-.415 2.324-.014 1.403.158 2.129.797 3.374.79 1.538 2.379 2.92 4.086 3.553.287.107.535.174.552.15.695-.991 1.374-1.4 2.33-1.4.957 0 1.626.402 2.33 1.401.08.113 1.47-.534 2.226-1.037a7.371 7.371 0 0 0 2.477-2.778c.573-1.148.744-1.906.735-3.25-.026-3.449-2.378-6.248-5.986-7.123-.97-.236-2.566-.24-3.565-.01-.931.215-2.316.84-2.897 1.307l-.425.342 1.335 1.274c.734.701 1.397 1.274 1.473 1.274.076 0 .406-.112.732-.25.894-.376 2.204-.357 3.084.045.826.378 1.224.716 1.684 1.433.732 1.14.732 2.39 0 3.53-.732 1.142-1.828 1.736-3.203 1.736-1.783 0-3.248-1.123-3.664-2.808-.134-.543-.13-.668.03-.9.13-.19.278-.257.504-.231.286.031.342.119.527.814.24.902.44 1.228.99 1.615 1.107.779 2.46.7 3.45-.203.737-.672.964-1.547.666-2.566-.387-1.326-2.112-2.114-3.46-1.58-.243.096-.441.214-.441.262 0 .048.387.45.86.89.472.442.912.894.976 1.005.163.28-.074.662-.412.662-.193 0-2.16-1.792-6.985-6.36-3.694-3.497-6.716-6.44-6.716-6.54 0-.206 1.254-1.403 2.066-1.972 1.347-.944 1.888-1.274 2.944-1.794 3.091-1.524 6.118-2.07 10.212-1.847 4.698.257 9.59 2.582 12.814 6.09 1.005 1.092 1.07 1.176 1.877 2.413 1.346 2.062 2.102 3.869 2.621 6.268.316 1.46.315 4.96-.002 6.504-.49 2.396-1.544 4.813-2.993 6.867l-.708 1.004.065.819c.07.877-.081 1.329-.617 1.84-.607.58-.94.693-2.032.693-.936 0-1.085.031-1.459.3-2.365 1.707-6.42 3.132-9.32 3.276-.652.033-1.35.073-1.55.09-.2.015-1.003-.007-1.783-.05Zm14.892-4.702c.544-.196.81-.577.81-1.164 0-.624-.28-1.036-.854-1.261-.512-.201-1.237.008-1.572.453-.78 1.036.358 2.425 1.616 1.972Zm-12.68-4.326c.793-.388.95-1.324.328-1.966-.353-.365-.464-.41-1-.41s-.647.045-1 .41c-1.056 1.09.272 2.652 1.672 1.966Zm9.88-17.251c.361-.314.449-.472.449-.813 0-.862-.488-1.323-1.406-1.327-.517-.002-.667.049-.942.32-.265.263-.326.43-.324.892.006 1.235 1.264 1.76 2.222.928Z"/>
  </g>
  <defs>
    <filter id="a" width="46.154" height="44.217" x="1" y="15.074" color-interpolation-filters="sRGB" filterUnits="userSpaceOnUse">
      <feFlood flood-opacity="0" result="BackgroundImageFix"/>
      <feColorMatrix in="SourceAlpha" result="hardAlpha" values="0 0 0 0 0 0 0 0 0 0 0 0 0 0 0 0 0 0 127 0"/>
      <feOffset dy="4"/>
      <feGaussianBlur stdDeviation="2"/>
      <feComposite in2="hardAlpha" operator="out"/>
      <feColorMatrix values="0 0 0 0 0 0 0 0 0 0 0 0 0 0 0 0 0 0 0.25 0"/>
      <feBlend in2="BackgroundImageFix" result="effect1_dropShadow_1_23"/>
      <feBlend in="SourceGraphic" in2="effect1_dropShadow_1_23" result="shape"/>
    </filter>
  </defs>
</svg>
